# xmcd
#
# Track frame offsets:
#	150
#	27085
#	55070
#	91295
#	114030
#	144650
#	174330
#	198330
#	223060
#
# Disc length: 3138 seconds
#
# Revision: 0
# Processed by: cddbd v1.5.1PL2 Copyright (c) Steve Scherf et al.
# Submitted via: EasyCDDAExtractor 8.0.2.1
#
DISCID=720c4009
DTITLE=Within Temptation - Broerenkerk Zwolle 27-11-04 Disc 2
DYEAR=2004
DGENRE=Gothic Rock
TTITLE0=Caged
TTITLE1=Mother Earth
TTITLE2=Deciever Of Fools
TTITLE3=Dark Wings
TTITLE4=Enter
TTITLE5=Jane Doe
TTITLE6=Our Farewell
TTITLE7=Ice Queen
TTITLE8=Crowd
EXTD=
EXTT0=
EXTT1=
EXTT2=
EXTT3=
EXTT4=
EXTT5=
EXTT6=
EXTT7=
EXTT8=
PLAYORDER=
